REM DIRINDEX 1\2,1\3,1\4,1\5
REM DIRNAME folder01,folder02,folder03,folder04,folder05
TITLE ""
FILE "CD2Track10.mp3" MP3
  TRACK 01 AUDIO
    TITLE "5:cjc155_2551"
    INDEX 01 00:00:00
  TRACK 02 AUDIO
    TITLE "0:"
    INDEX 01 00:01:40
  TRACK 03 AUDIO
    TITLE "2:cjc155_2552"
    INDEX 01 00:02:40
  TRACK 04 AUDIO
    TITLE "3:cjc155_2553"
    INDEX 01 00:03:64
  TRACK 05 AUDIO
    TITLE "2:cjc155_2554"
    INDEX 01 00:05:18
  TRACK 06 AUDIO
    TITLE "3:cjc155_2555"
    INDEX 01 00:07:66
  TRACK 07 AUDIO
    TITLE "2:cjc155_2556"
    INDEX 01 00:10:49
  TRACK 08 AUDIO
    TITLE "3:cjc155_2557"
    INDEX 01 00:12:22
  TRACK 09 AUDIO
    TITLE "2:cjc155_2558"
    INDEX 01 00:14:00
  TRACK 10 AUDIO
    TITLE "3:cjc155_2559"
    INDEX 01 00:15:70
  TRACK 11 AUDIO
    TITLE "2:cjc155_2560"
    INDEX 01 00:17:69
  TRACK 12 AUDIO
    TITLE "3:cjc155_2561"
    INDEX 01 00:19:26
  TRACK 13 AUDIO
    TITLE "2:cjc155_2562"
    INDEX 01 00:20:73
  TRACK 14 AUDIO
    TITLE "3:cjc155_2563"
    INDEX 01 00:22:34
  TRACK 15 AUDIO
    TITLE "2:cjc155_2564"
    INDEX 01 00:24:06
  TRACK 16 AUDIO
    TITLE "3:cjc155_2565"
    INDEX 01 00:25:27
  TRACK 17 AUDIO
    TITLE "2:cjc155_2566"
    INDEX 01 00:26:52
  TRACK 18 AUDIO
    TITLE "3:cjc155_2567"
    INDEX 01 00:28:23
  TRACK 19 AUDIO
    TITLE "2:cjc155_2568"
    INDEX 01 00:30:03
  TRACK 20 AUDIO
    TITLE "3:cjc155_2569"
    INDEX 01 00:31:31
  TRACK 21 AUDIO
    TITLE "2:cjc155_2570"
    INDEX 01 00:32:70
  TRACK 22 AUDIO
    TITLE "3:cjc155_2571"
    INDEX 01 00:34:34
  TRACK 23 AUDIO
    TITLE "2:cjc155_2572"
    INDEX 01 00:36:03
  TRACK 24 AUDIO
    TITLE "3:cjc155_2573"
    INDEX 01 00:38:00
  TRACK 25 AUDIO
    TITLE "2:cjc155_2574"
    INDEX 01 00:40:05
  TRACK 26 AUDIO
    TITLE "3:cjc155_2575"
    INDEX 01 00:41:08
  TRACK 27 AUDIO
    TITLE "2:cjc155_2576"
    INDEX 01 00:42:18
  TRACK 28 AUDIO
    TITLE "3:cjc155_2577"
    INDEX 01 00:43:60
  TRACK 29 AUDIO
    TITLE "2:cjc155_2578"
    INDEX 01 00:45:35
  TRACK 30 AUDIO
    TITLE "3:cjc155_2579"
    INDEX 01 00:47:27
  TRACK 31 AUDIO
    TITLE "2:cjc155_2580"
    INDEX 01 00:49:25
  TRACK 32 AUDIO
    TITLE "3:cjc155_2581"
    INDEX 01 00:50:25
  TRACK 33 AUDIO
    TITLE "2:cjc155_2582"
    INDEX 01 00:51:32
  TRACK 34 AUDIO
    TITLE "3:cjc155_2583"
    INDEX 01 00:53:57
  TRACK 35 AUDIO
    TITLE "2:cjc155_2584"
    INDEX 01 00:56:04
  TRACK 36 AUDIO
    TITLE "3:cjc155_2585"
    INDEX 01 00:58:05
  TRACK 37 AUDIO
    TITLE "2:cjc155_2586"
    INDEX 01 01:00:12
  TRACK 38 AUDIO
    TITLE "3:cjc155_2587"
    INDEX 01 01:01:58
  TRACK 39 AUDIO
    TITLE "2:cjc155_2588"
    INDEX 01 01:03:37
  TRACK 40 AUDIO
    TITLE "3:cjc155_2589"
    INDEX 01 01:05:13
  TRACK 41 AUDIO
    TITLE "2:cjc155_2590"
    INDEX 01 01:06:71
  TRACK 42 AUDIO
    TITLE "3:cjc155_2591"
    INDEX 01 01:08:54
  TRACK 43 AUDIO
    TITLE "2:cjc155_2592"
    INDEX 01 01:10:41
  TRACK 44 AUDIO
    TITLE "3:cjc155_2593"
    INDEX 01 01:13:22
  TRACK 45 AUDIO
    TITLE "2:cjc155_2594"
    INDEX 01 01:16:14
  TRACK 46 AUDIO
    TITLE "3:cjc155_2595"
    INDEX 01 01:18:47
  TRACK 47 AUDIO
    TITLE "2:cjc155_2596"
    INDEX 01 01:21:16
  TRACK 48 AUDIO
    TITLE "3:cjc155_2597"
    INDEX 01 01:22:48
  TRACK 49 AUDIO
    TITLE "2:cjc155_2598"
    INDEX 01 01:24:16
  TRACK 50 AUDIO
    TITLE "3:cjc155_2599"
    INDEX 01 01:26:50
  TRACK 51 AUDIO
    TITLE "2:cjc155_2600"
    INDEX 01 01:29:21
  TRACK 52 AUDIO
    TITLE "3:cjc155_2601"
    INDEX 01 01:31:12
  TRACK 53 AUDIO
    TITLE "2:cjc155_2602"
    INDEX 01 01:33:13
  TRACK 54 AUDIO
    TITLE "3:cjc155_2603"
    INDEX 01 01:34:14
  TRACK 55 AUDIO
    TITLE "2:cjc155_2604"
    INDEX 01 01:35:26
  TRACK 56 AUDIO
    TITLE "3:cjc155_2605"
    INDEX 01 01:37:56
  TRACK 57 AUDIO
    TITLE "2:cjc155_2606"
    INDEX 01 01:40:23
  TRACK 58 AUDIO
    TITLE "3:cjc155_2607"
    INDEX 01 01:41:65
  TRACK 59 AUDIO
    TITLE "2:cjc155_2608"
    INDEX 01 01:43:35
  TRACK 60 AUDIO
    TITLE "3:cjc155_2609"
    INDEX 01 01:44:48
  TRACK 61 AUDIO
    TITLE "2:cjc155_2610"
    INDEX 01 01:45:65
  TRACK 62 AUDIO
    TITLE "3:cjc155_2611"
    INDEX 01 01:47:68
  TRACK 63 AUDIO
    TITLE "2:cjc155_2612"
    INDEX 01 01:49:73
  TRACK 64 AUDIO
    TITLE "3:cjc155_2613"
    INDEX 01 01:51:21
  TRACK 65 AUDIO
    TITLE "2:cjc155_2614"
    INDEX 01 01:52:48
  TRACK 66 AUDIO
    TITLE "3:cjc155_2615"
    INDEX 01 01:54:42
  TRACK 67 AUDIO
    TITLE "2:cjc155_2616"
    INDEX 01 01:56:39
  TRACK 68 AUDIO
    TITLE "3:cjc155_2617"
    INDEX 01 01:58:19
  TRACK 69 AUDIO
    TITLE "2:cjc155_2618"
    INDEX 01 02:00:04
  TRACK 70 AUDIO
    TITLE "3:cjc155_2619"
    INDEX 01 02:01:43
  TRACK 71 AUDIO
    TITLE "2:cjc155_2620"
    INDEX 01 02:03:14
  TRACK 72 AUDIO
    TITLE "3:cjc155_2621"
    INDEX 01 02:05:21
  TRACK 73 AUDIO
    TITLE "2:cjc155_2622"
    INDEX 01 02:07:41
  TRACK 74 AUDIO
    TITLE "3:cjc155_2623"
    INDEX 01 02:09:60
  TRACK 75 AUDIO
    TITLE "2:cjc155_2624"
    INDEX 01 02:12:17
  TRACK 76 AUDIO
    TITLE "3:cjc155_2625"
    INDEX 01 02:14:16
  TRACK 77 AUDIO
    TITLE "2:cjc155_2626"
    INDEX 01 02:16:26
  TRACK 78 AUDIO
    TITLE "3:cjc155_2627"
    INDEX 01 02:18:21
  TRACK 79 AUDIO
    TITLE "2:cjc155_2628"
    INDEX 01 02:20:22
  TRACK 80 AUDIO
    TITLE "3:cjc155_2629"
    INDEX 01 02:22:35
  TRACK 81 AUDIO
    TITLE "2:cjc155_2630"
    INDEX 01 02:24:55
  TRACK 82 AUDIO
    TITLE "3:cjc155_2631"
    INDEX 01 02:26:56
  TRACK 83 AUDIO
    TITLE "2:cjc155_2632"
    INDEX 01 02:28:55
  TRACK 84 AUDIO
    TITLE "3:cjc155_2633"
    INDEX 01 02:31:50
  TRACK 85 AUDIO
    TITLE "2:cjc155_2634"
    INDEX 01 02:34:42
  TRACK 86 AUDIO
    TITLE "3:cjc155_2635"
    INDEX 01 02:36:72
  TRACK 87 AUDIO
    TITLE "2:cjc155_2636"
    INDEX 01 02:39:29
  TRACK 88 AUDIO
    TITLE "3:cjc155_2637"
    INDEX 01 02:41:38
  TRACK 89 AUDIO
    TITLE "2:cjc155_2638"
    INDEX 01 02:43:57
  TRACK 90 AUDIO
    TITLE "3:cjc155_2639"
    INDEX 01 02:45:32
  TRACK 91 AUDIO
    TITLE "2:cjc155_2640"
    INDEX 01 02:47:17
  TRACK 92 AUDIO
    TITLE "3:cjc155_2641"
    INDEX 01 02:48:64
  TRACK 93 AUDIO
    TITLE "2:cjc155_2642"
    INDEX 01 02:50:43
  TRACK 94 AUDIO
    TITLE "3:cjc155_2643"
    INDEX 01 02:52:09
  TRACK 95 AUDIO
    TITLE "2:cjc155_2644"
    INDEX 01 02:53:53
  TRACK 96 AUDIO
    TITLE "3:cjc155_2645"
    INDEX 01 02:55:01
  TRACK 97 AUDIO
    TITLE "2:cjc155_2646"
    INDEX 01 02:56:28
  TRACK 98 AUDIO
    TITLE "3:cjc155_2647"
    INDEX 01 02:58:17
  TRACK 99 AUDIO
    TITLE "2:cjc155_2648"
    INDEX 01 03:00:18
  TRACK 100 AUDIO
    TITLE "3:cjc155_2649"
    INDEX 01 03:01:27
  TRACK 101 AUDIO
    TITLE "2:cjc155_2650"
    INDEX 01 03:02:48
  TRACK 102 AUDIO
    TITLE "3:cjc155_2651"
    INDEX 01 03:04:57
  TRACK 103 AUDIO
    TITLE "2:cjc155_2652"
    INDEX 01 03:07:00
  TRACK 104 AUDIO
    TITLE "3:cjc155_2653"
    INDEX 01 03:08:29
  TRACK 105 AUDIO
    TITLE "2:cjc155_2654"
    INDEX 01 03:09:74
  TRACK 106 AUDIO
    TITLE "3:cjc155_2655"
    INDEX 01 03:11:49
  TRACK 107 AUDIO
    TITLE "2:cjc155_2656"
    INDEX 01 03:13:34
  TRACK 108 AUDIO
    TITLE "3:cjc155_2657"
    INDEX 01 03:15:29
  TRACK 109 AUDIO
    TITLE "2:cjc155_2658"
    INDEX 01 03:17:34
  TRACK 110 AUDIO
    TITLE "3:cjc155_2659"
    INDEX 01 03:20:01
  TRACK 111 AUDIO
    TITLE "2:cjc155_2660"
    INDEX 01 03:22:45
  TRACK 112 AUDIO
    TITLE "3:cjc155_2661"
    INDEX 01 03:24:52
  TRACK 113 AUDIO
    TITLE "2:cjc155_2662"
    INDEX 01 03:26:62
  TRACK 114 AUDIO
    TITLE "3:cjc155_2663"
    INDEX 01 03:28:20
  TRACK 115 AUDIO
    TITLE "2:cjc155_2664"
    INDEX 01 03:29:55
  TRACK 116 AUDIO
    TITLE "3:cjc155_2665"
    INDEX 01 03:30:74
  TRACK 117 AUDIO
    TITLE "2:cjc155_2666"
    INDEX 01 03:32:22
  TRACK 118 AUDIO
    TITLE "3:cjc155_2667"
    INDEX 01 03:33:25
  TRACK 119 AUDIO
    TITLE "2:cjc155_2668"
    INDEX 01 03:34:34
  TRACK 120 AUDIO
    TITLE "3:cjc155_2669"
    INDEX 01 03:36:27
  TRACK 121 AUDIO
    TITLE "2:cjc155_2670"
    INDEX 01 03:38:24
  TRACK 122 AUDIO
    TITLE "3:cjc155_2671"
    INDEX 01 03:40:29
  TRACK 123 AUDIO
    TITLE "2:cjc155_2672"
    INDEX 01 03:42:40
  TRACK 124 AUDIO
    TITLE "3:cjc155_2673"
    INDEX 01 03:44:48
  TRACK 125 AUDIO
    TITLE "2:cjc155_2674"
    INDEX 01 03:46:69
  TRACK 126 AUDIO
    TITLE "3:cjc155_2675"
    INDEX 01 03:48:25
  TRACK 127 AUDIO
    TITLE "2:cjc155_2676"
    INDEX 01 03:49:63
  TRACK 128 AUDIO
    TITLE "3:cjc155_2677"
    INDEX 01 03:50:73
  TRACK 129 AUDIO
    TITLE "2:cjc155_2678"
    INDEX 01 03:52:11
  TRACK 130 AUDIO
    TITLE "3:cjc155_2679"
    INDEX 01 03:53:55
  TRACK 131 AUDIO
    TITLE "2:cjc155_2680"
    INDEX 01 03:55:39
  TRACK 132 AUDIO
    TITLE "3:cjc155_2681"
    INDEX 01 03:58:11
  TRACK 133 AUDIO
    TITLE "2:cjc155_2682"
    INDEX 01 04:00:71
  TRACK 134 AUDIO
    TITLE "3:cjc155_2683"
    INDEX 01 04:02:15
  TRACK 135 AUDIO
    TITLE "2:cjc155_2684"
    INDEX 01 04:03:52
  TRACK 136 AUDIO
    TITLE "3:cjc155_2685"
    INDEX 01 04:05:23
  TRACK 137 AUDIO
    TITLE "2:cjc155_2686"
    INDEX 01 04:07:10
  TRACK 138 AUDIO
    TITLE "3:cjc155_2687"
    INDEX 01 04:09:70
  TRACK 139 AUDIO
    TITLE "2:cjc155_2688"
    INDEX 01 04:12:62
  TRACK 140 AUDIO
    TITLE "3:cjc155_2689"
    INDEX 01 04:15:39
  TRACK 141 AUDIO
    TITLE "2:cjc155_2690"
    INDEX 01 04:18:22
  TRACK 142 AUDIO
    TITLE "3:cjc155_2691"
    INDEX 01 04:19:68
  TRACK 143 AUDIO
    TITLE "2:cjc155_2692"
    INDEX 01 04:21:46
  TRACK 144 AUDIO
    TITLE "3:cjc155_2693"
    INDEX 01 04:23:72
  TRACK 145 AUDIO
    TITLE "2:cjc155_2694"
    INDEX 01 04:26:25
  TRACK 146 AUDIO
    TITLE "3:cjc155_2695"
    INDEX 01 04:27:29
  TRACK 147 AUDIO
    TITLE "2:cjc155_2696"
    INDEX 01 04:28:40
  TRACK 148 AUDIO
    TITLE "3:cjc155_2697"
    INDEX 01 04:29:57
  TRACK 149 AUDIO
    TITLE "2:cjc155_2698"
    INDEX 01 04:31:05
  TRACK 150 AUDIO
    TITLE "3:cjc155_2699"
    INDEX 01 04:33:23
  TRACK 151 AUDIO
    TITLE "2:cjc155_2700"
    INDEX 01 04:35:46
  TRACK 152 AUDIO
    TITLE "3:cjc155_2701"
    INDEX 01 04:37:33
  TRACK 153 AUDIO
    TITLE "2:cjc155_2702"
    INDEX 01 04:39:26
  TRACK 154 AUDIO
    TITLE "3:cjc155_2703"
    INDEX 01 04:42:13
  TRACK 155 AUDIO
    TITLE "2:cjc155_2704"
    INDEX 01 04:45:09
  TRACK 156 AUDIO
    TITLE "3:cjc155_2705"
    INDEX 01 04:47:00
  TRACK 157 AUDIO
    TITLE "2:cjc155_2706"
    INDEX 01 04:49:03
  TRACK 158 AUDIO
    TITLE "3:cjc155_2707"
    INDEX 01 04:51:33
  TRACK 159 AUDIO
    TITLE "2:cjc155_2708"
    INDEX 01 04:54:00
  TRACK 160 AUDIO
    TITLE "3:cjc155_2709"
    INDEX 01 04:55:47
  TRACK 161 AUDIO
    TITLE "2:cjc155_2710"
    INDEX 01 04:57:16
  TRACK 162 AUDIO
    TITLE "3:cjc155_2711"
    INDEX 01 04:59:27
  TRACK 163 AUDIO
    TITLE "2:cjc155_2712"
    INDEX 01 05:01:47
  TRACK 164 AUDIO
    TITLE "3:cjc155_2713"
    INDEX 01 05:03:30
  TRACK 165 AUDIO
    TITLE "2:cjc155_2714"
    INDEX 01 05:05:21
  TRACK 166 AUDIO
    TITLE "3:cjc155_2715"
    INDEX 01 05:07:03
  TRACK 167 AUDIO
    TITLE "2:cjc155_2716"
    INDEX 01 05:08:65
  TRACK 168 AUDIO
    TITLE "3:cjc155_2717"
    INDEX 01 05:10:17
  TRACK 169 AUDIO
    TITLE "2:cjc155_2718"
    INDEX 01 05:11:53
  TRACK 170 AUDIO
    TITLE "3:cjc155_2719"
    INDEX 01 05:13:62
  TRACK 171 AUDIO
    TITLE "2:cjc155_2720"
    INDEX 01 05:16:12
  TRACK 172 AUDIO
    TITLE "3:cjc155_2721"
    INDEX 01 05:17:34
  TRACK 173 AUDIO
    TITLE "2:cjc155_2722"
    INDEX 01 05:18:67
  TRACK 174 AUDIO
    TITLE "3:cjc155_2723"
    INDEX 01 05:20:33
  TRACK 175 AUDIO
    TITLE "2:cjc155_2724"
    INDEX 01 05:22:04
  TRACK 176 AUDIO
    TITLE "3:cjc155_2725"
    INDEX 01 05:23:33
  TRACK 177 AUDIO
    TITLE "2:cjc155_2726"
    INDEX 01 05:24:66
  TRACK 178 AUDIO
    TITLE "3:cjc155_2727"
    INDEX 01 05:26:59
  TRACK 179 AUDIO
    TITLE "2:cjc155_2728"
    INDEX 01 05:28:66
  TRACK 180 AUDIO
    TITLE "3:cjc155_2729"
    INDEX 01 05:30:35
  TRACK 181 AUDIO
    TITLE "2:cjc155_2730"
    INDEX 01 05:32:16
  TRACK 182 AUDIO
    TITLE "3:cjc155_2731"
    INDEX 01 05:33:37
  TRACK 183 AUDIO
    TITLE "2:cjc155_2732"
    INDEX 01 05:34:62
  TRACK 184 AUDIO
    TITLE "3:cjc155_2733"
    INDEX 01 05:37:33
  TRACK 185 AUDIO
    TITLE "2:cjc155_2734"
    INDEX 01 05:40:06
  TRACK 186 AUDIO
    TITLE "3:cjc155_2735"
    INDEX 01 05:41:53
  TRACK 187 AUDIO
    TITLE "2:cjc155_2736"
    INDEX 01 05:43:24
  TRACK 188 AUDIO
    TITLE "3:cjc155_2737"
    INDEX 01 05:45:05
  TRACK 189 AUDIO
    TITLE "2:cjc155_2738"
    INDEX 01 05:46:66
  TRACK 190 AUDIO
    TITLE "3:cjc155_2739"
    INDEX 01 05:48:21
  TRACK 191 AUDIO
    TITLE "2:cjc155_2740"
    INDEX 01 05:49:58
  TRACK 192 AUDIO
    TITLE "3:cjc155_2741"
    INDEX 01 05:51:14
  TRACK 193 AUDIO
    TITLE "2:cjc155_2742"
    INDEX 01 05:52:48
  TRACK 194 AUDIO
    TITLE "3:cjc155_2743"
    INDEX 01 05:54:14
  TRACK 195 AUDIO
    TITLE "2:cjc155_2744"
    INDEX 01 05:55:66
  TRACK 196 AUDIO
    TITLE "3:cjc155_2745"
    INDEX 01 05:57:56
  TRACK 197 AUDIO
    TITLE "2:cjc155_2746"
    INDEX 01 05:59:52
  TRACK 198 AUDIO
    TITLE "3:cjc155_2747"
    INDEX 01 06:02:02
  TRACK 199 AUDIO
    TITLE "2:cjc155_2748"
    INDEX 01 06:04:32
  TRACK 200 AUDIO
    TITLE "3:cjc155_2749"
    INDEX 01 06:05:73
  TRACK 201 AUDIO
    TITLE "2:cjc155_2750"
    INDEX 01 06:07:40
  TRACK 202 AUDIO
    TITLE "3:cjc155_2751"
    INDEX 01 06:08:53
  TRACK 203 AUDIO
    TITLE "2:cjc155_2752"
    INDEX 01 06:10:03
  TRACK 204 AUDIO
    TITLE "3:cjc155_2753"
    INDEX 01 06:12:16
  TRACK 205 AUDIO
    TITLE "2:cjc155_2754"
    INDEX 01 06:14:38
  TRACK 206 AUDIO
    TITLE "3:cjc155_2755"
    INDEX 01 06:16:10
  TRACK 207 AUDIO
    TITLE "2:cjc155_2756"
    INDEX 01 06:17:60
  TRACK 208 AUDIO
    TITLE "3:cjc155_2757"
    INDEX 01 06:19:26
  TRACK 209 AUDIO
    TITLE "2:cjc155_2758"
    INDEX 01 06:20:68
  TRACK 210 AUDIO
    TITLE "3:cjc155_2759"
    INDEX 01 06:22:08
  TRACK 211 AUDIO
    TITLE "2:cjc155_2760"
    INDEX 01 06:23:29
  TRACK 212 AUDIO
    TITLE "3:cjc155_2761"
    INDEX 01 06:25:42
  TRACK 213 AUDIO
    TITLE "2:cjc155_2762"
    INDEX 01 06:27:66
  TRACK 214 AUDIO
    TITLE "3:cjc155_2763"
    INDEX 01 06:29:42
  TRACK 215 AUDIO
    TITLE "2:cjc155_2764"
    INDEX 01 06:31:29
  TRACK 216 AUDIO
    TITLE "3:cjc155_2765"
    INDEX 01 06:33:00
  TRACK 217 AUDIO
    TITLE "2:cjc155_2766"
    INDEX 01 06:34:57
  TRACK 218 AUDIO
    TITLE "3:cjc155_2767"
    INDEX 01 06:36:11
  TRACK 219 AUDIO
    TITLE "2:cjc155_2768"
    INDEX 01 06:37:47
  TRACK 220 AUDIO
    TITLE "3:cjc155_2769"
    INDEX 01 06:39:58
  TRACK 221 AUDIO
    TITLE "2:cjc155_2770"
    INDEX 01 06:42:03
  TRACK 222 AUDIO
    TITLE "3:cjc155_2771"
    INDEX 01 06:44:47
  TRACK 223 AUDIO
    TITLE "2:cjc155_2772"
    INDEX 01 06:47:24
  TRACK 224 AUDIO
    TITLE "3:cjc155_2773"
    INDEX 01 06:48:57
  TRACK 225 AUDIO
    TITLE "2:cjc155_2774"
    INDEX 01 06:50:26
  TRACK 226 AUDIO
    TITLE "3:cjc155_2775"
    INDEX 01 06:52:64
  TRACK 227 AUDIO
    TITLE "2:cjc155_2776"
    INDEX 01 06:55:35
  TRACK 228 AUDIO
    TITLE "3:cjc155_2777"
    INDEX 01 06:56:47
  TRACK 229 AUDIO
    TITLE "2:cjc155_2778"
    INDEX 01 06:57:66
  TRACK 230 AUDIO
    TITLE "3:cjc155_2779"
    INDEX 01 06:59:43
  TRACK 231 AUDIO
    TITLE "2:cjc155_2780"
    INDEX 01 07:01:34
  TRACK 232 AUDIO
    TITLE "3:cjc155_2781"
    INDEX 01 07:02:61
  TRACK 233 AUDIO
    TITLE "2:cjc155_2782"
    INDEX 01 07:04:23
  TRACK 234 AUDIO
    TITLE "3:cjc155_2783"
    INDEX 01 07:06:45
  TRACK 235 AUDIO
    TITLE "2:cjc155_2784"
    INDEX 01 07:08:73
  TRACK 236 AUDIO
    TITLE "3:cjc155_2785"
    INDEX 01 07:10:15
  TRACK 237 AUDIO
    TITLE "2:cjc155_2786"
    INDEX 01 07:11:38
  TRACK 238 AUDIO
    TITLE "3:cjc155_2787"
    INDEX 01 07:13:61
  TRACK 239 AUDIO
    TITLE "2:cjc155_2788"
    INDEX 01 07:16:16
  TRACK 240 AUDIO
    TITLE "3:cjc155_2789"
    INDEX 01 07:17:66
  TRACK 241 AUDIO
    TITLE "2:cjc155_2790"
    INDEX 01 07:19:53
  TRACK 242 AUDIO
    TITLE "3:cjc155_2791"
    INDEX 01 07:22:62
  TRACK 243 AUDIO
    TITLE "2:cjc155_2792"
    INDEX 01 07:26:03
  TRACK 244 AUDIO
    TITLE "3:cjc155_2793"
    INDEX 01 07:28:01
  TRACK 245 AUDIO
    TITLE "2:cjc155_2794"
    INDEX 01 07:30:06
  TRACK 246 AUDIO
    TITLE "3:cjc155_2795"
    INDEX 01 07:32:01
  TRACK 247 AUDIO
    TITLE "2:cjc155_2796"
    INDEX 01 07:34:04
  TRACK 248 AUDIO
    TITLE "3:cjc155_2797"
    INDEX 01 07:35:72
  TRACK 249 AUDIO
    TITLE "2:cjc155_2798"
    INDEX 01 07:38:02
  TRACK 250 AUDIO
    TITLE "3:cjc155_2799"
    INDEX 01 07:40:11
  TRACK 251 AUDIO
    TITLE "2:cjc155_2800"
    INDEX 01 07:42:25
  TRACK 252 AUDIO
    TITLE "3:cjc155_2801"
    INDEX 01 07:44:08
  TRACK 253 AUDIO
    TITLE "2:cjc155_2802"
    INDEX 01 07:46:03
  TRACK 254 AUDIO
    TITLE "3:cjc155_2803"
    INDEX 01 07:47:65
  TRACK 255 AUDIO
    TITLE "2:cjc155_2804"
    INDEX 01 07:49:47
  TRACK 256 AUDIO
    TITLE "3:cjc155_2805"
    INDEX 01 07:51:40
  TRACK 257 AUDIO
    TITLE "2:cjc155_2806"
    INDEX 01 07:53:35
  TRACK 258 AUDIO
    TITLE "3:cjc155_2807"
    INDEX 01 07:54:67
  TRACK 259 AUDIO
    TITLE "2:cjc155_2808"
    INDEX 01 07:56:33
  TRACK 260 AUDIO
    TITLE "3:cjc155_2809"
    INDEX 01 07:58:22
  TRACK 261 AUDIO
    TITLE "2:cjc155_2810"
    INDEX 01 08:00:21
  TRACK 262 AUDIO
    TITLE "3:cjc155_2811"
    INDEX 01 08:01:44
  TRACK 263 AUDIO
    TITLE "2:cjc155_2812"
    INDEX 01 08:03:02
  TRACK 264 AUDIO
    TITLE "3:cjc155_2813"
    INDEX 01 08:04:36
  TRACK 265 AUDIO
    TITLE "2:cjc155_2814"
    INDEX 01 08:06:06
  TRACK 266 AUDIO
    TITLE "3:cjc155_2815"
    INDEX 01 08:07:68
  TRACK 267 AUDIO
    TITLE "2:cjc155_2816"
    INDEX 01 08:09:61
  TRACK 268 AUDIO
    TITLE "3:cjc155_2817"
    INDEX 01 08:11:46
  TRACK 269 AUDIO
    TITLE "2:cjc155_2818"
    INDEX 01 08:13:41
  TRACK 270 AUDIO
    TITLE "3:cjc155_2819"
    INDEX 01 08:15:11
  TRACK 271 AUDIO
    TITLE "2:cjc155_2820"
    INDEX 01 08:16:61
  TRACK 272 AUDIO
    TITLE "3:cjc155_2821"
    INDEX 01 08:18:11
  TRACK 273 AUDIO
    TITLE "2:cjc155_2822"
    INDEX 01 08:19:46
  TRACK 274 AUDIO
    TITLE "3:cjc155_2823"
    INDEX 01 08:20:73
  TRACK 275 AUDIO
    TITLE "2:cjc155_2824"
    INDEX 01 08:22:29
  TRACK 276 AUDIO
    TITLE "3:cjc155_2825"
    INDEX 01 08:23:50
  TRACK 277 AUDIO
    TITLE "2:cjc155_2826"
    INDEX 01 08:25:05
  TRACK 278 AUDIO
    TITLE "3:cjc155_2827"
    INDEX 01 08:27:45
  TRACK 279 AUDIO
    TITLE "2:cjc155_2828"
    INDEX 01 08:30:18
  TRACK 280 AUDIO
    TITLE "3:cjc155_2829"
    INDEX 01 08:32:01
  TRACK 281 AUDIO
    TITLE "2:cjc155_2830"
    INDEX 01 08:33:68
  TRACK 282 AUDIO
    TITLE "3:cjc155_2831"
    INDEX 01 08:35:25
  TRACK 283 AUDIO
    TITLE "2:cjc155_2832"
    INDEX 01 08:36:64
  TRACK 284 AUDIO
    TITLE "3:cjc155_2833"
    INDEX 01 08:38:49
  TRACK 285 AUDIO
    TITLE "2:cjc155_2834"
    INDEX 01 08:40:42
  TRACK 286 AUDIO
    TITLE "3:cjc155_2835"
    INDEX 01 08:42:59
  TRACK 287 AUDIO
    TITLE "2:cjc155_2836"
    INDEX 01 08:45:02
  TRACK 288 AUDIO
    TITLE "3:cjc155_2837"
    INDEX 01 08:46:21
  TRACK 289 AUDIO
    TITLE "2:cjc155_2838"
    INDEX 01 08:47:50
  TRACK 290 AUDIO
    TITLE "3:cjc155_2839"
    INDEX 01 08:49:37
  TRACK 291 AUDIO
    TITLE "2:cjc155_2840"
    INDEX 01 08:51:36
  TRACK 292 AUDIO
    TITLE "3:cjc155_2841"
    INDEX 01 08:52:61
  TRACK 293 AUDIO
    TITLE "2:cjc155_2842"
    INDEX 01 08:54:17
  TRACK 294 AUDIO
    TITLE "3:cjc155_2843"
    INDEX 01 08:55:44
  TRACK 295 AUDIO
    TITLE "2:cjc155_2844"
    INDEX 01 08:56:72
  TRACK 296 AUDIO
    TITLE "3:cjc155_2845"
    INDEX 01 08:58:30
  TRACK 297 AUDIO
    TITLE "2:cjc155_2846"
    INDEX 01 08:59:69
  TRACK 298 AUDIO
    TITLE "3:cjc155_2847"
    INDEX 01 09:01:09
  TRACK 299 AUDIO
    TITLE "2:cjc155_2848"
    INDEX 01 09:02:28
  TRACK 300 AUDIO
    TITLE "3:cjc155_2849"
    INDEX 01 09:04:27
  TRACK 301 AUDIO
    TITLE "0:"
    INDEX 01 09:06:36
